0
SECTION
2
ENTITIES
0
LINE
8
0
10
5.8179703
20
2.455799
30
-263.4017
11
-0.38993502
21
-2.1401215
31
-282.6007
0
LINE
8
0
10
-0.38993502
20
-2.1401215
30
-282.6007
11
-12.573837
21
-2.2646613
31
-270.77173
0
LINE
8
0
10
-12.573837
20
-2.2646613
30
-270.77173
11
-17.807072
21
6.8431354
31
-245.4404
0
LINE
8
0
10
-17.807072
20
6.8431354
30
-245.4404
11
-31.443607
21
-6.308713
31
-253.28549
0
LINE
8
0
10
-31.443607
20
-6.308713
30
-253.28549
11
-45.041725
21
-3.6976547
31
-244.99844
0
LINE
8
0
10
-45.041725
20
-3.6976547
30
-244.99844
11
-41.432114
21
11.230472
31
-227.47908
0
LINE
8
0
10
-41.432114
20
11.230472
30
-227.47908
11
-64.40638
21
8.359233
31
-231.71083
0
LINE
8
0
10
-64.40638
20
8.359233
30
-231.71083
11
-74.79354
21
15.600308
31
-222.40062
0
LINE
8
0
10
-74.79354
20
15.600308
30
-222.40062
11
-65.05715
21
15.617807
31
-209.51776
0
LINE
8
0
10
18.602257
20
-1.7645001
30
-282.63492
11
10.90427
21
-15.557743
31
-287.3525
0
LINE
8
0
10
10.90427
20
-15.557743
30
-287.3525
11
-2.496007
21
-19.879135
31
-275.15726
0
LINE
8
0
10
-2.496007
20
-19.879135
30
-275.15726
11
-12.461014
21
-16.346138
31
-258.08728
0
LINE
8
0
10
-12.461014
20
-16.346138
30
-258.08728
11
-24.419184
21
-23.367243
31
-248.26334
0
LINE
8
0
10
-24.419184
20
-23.367243
30
-248.26334
11
-44.823906
21
-22.709967
31
-241.9013
0
LINE
8
0
10
-44.823906
20
-22.709967
30
-241.9013
11
-54.95948
21
-11.151754
31
-229.88669
0
LINE
8
0
10
-54.95948
20
-11.151754
30
-229.88669
11
-70.92996
21
-7.4807024
31
-222.77652
0
LINE
8
0
10
-70.92996
20
-7.4807024
30
-222.77652
11
-63.660835
21
4.5755405
31
-209.45746
0
LINE
8
0
10
-63.660835
20
4.5755405
30
-209.45746
11
-88.0581
21
12.791743
31
-205.67398
0
LINE
8
0
10
35.11978
20
-6.4176884
30
-279.86566
11
27.071918
21
-21.88531
31
-278.0284
0
LINE
8
0
10
27.071918
20
-21.88531
30
-278.0284
11
13.625407
21
-27.99149
31
-265.68277
0
LINE
8
0
10
13.625407
20
-27.99149
30
-265.68277
11
1.7614846
21
-27.034927
31
-250.81448
0
LINE
8
0
10
1.7614846
20
-27.034927
30
-250.81448
11
1.9789095
21
-25.577415
31
-232.64001
0
LINE
8
0
10
1.9789095
20
-25.577415
30
-232.64001
11
-42.07577
21
-33.434986
31
-226.99088
0
LINE
8
0
10
-42.07577
20
-33.434986
30
-226.99088
11
-54.344902
21
-22.215797
31
-214.8934
0
LINE
8
0
10
-54.344902
20
-22.215797
30
-214.8934
11
-71.316345
21
-15.840523
31
-205.14197
0
LINE
8
0
10
-71.316345
20
-15.840523
30
-205.14197
11
-86.47979
21
-5.1639194
31
-196.53105
0
LINE
8
0
10
-86.47979
20
-5.1639194
30
-196.53105
11
-88.6252
21
10.439947
31
-188.47223
0
LINE
8
0
10
37.590908
20
0.7556715
30
-259.80838
11
36.72868
21
-16.849981
31
-260.307
0
LINE
8
0
10
36.72868
20
-16.849981
30
-260.307
11
23.20765
21
-19.936916
31
-247.16649
0
LINE
8
0
10
23.20765
20
-19.936916
30
-247.16649
11
4.714216
21
-14.763519
31
-233.7256
0
LINE
8
0
10
4.714216
20
-14.763519
30
-233.7256
11
-14.24329
21
-27.972301
31
-226.28174
0
LINE
8
0
10
-14.24329
20
-27.972301
30
-226.28174
11
-28.351692
21
-24.25508
31
-212.21594
0
LINE
8
0
10
-28.351692
20
-24.25508
30
-212.21594
11
-38.89672
21
-8.452987
31
-202.97128
0
LINE
8
0
10
-38.89672
20
-8.452987
30
-202.97128
11
-56.854763
21
-9.201527
31
-190.80243
0
LINE
8
0
10
-56.854763
20
-9.201527
30
-190.80243
11
-71.27133
21
-0.93893623
31
-181.00934
0
LINE
8
0
10
-71.27133
20
-0.93893623
30
-181.00934
11
-69.25706
21
16.418184
31
-179.93912
0
LINE
8
0
10
30.470488
20
9.930429
30
-232.80133
11
42.40373
21
-9.380008
31
-241.99411
0
LINE
8
0
10
42.40373
20
-9.380008
30
-241.99411
11
35.384674
21
-6.1408434
31
-227.74417
0
LINE
8
0
10
35.384674
20
-6.1408434
30
-227.74417
11
6.8454456
21
14.317766
31
-214.84001
0
LINE
8
0
10
6.8454456
20
14.317766
30
-214.84001
11
-1.4644699
21
-13.386654
31
-209.07776
0
LINE
8
0
10
-1.4644699
20
-13.386654
30
-209.07776
11
-14.617552
21
-10.177929
31
-197.96646
0
LINE
8
0
10
-14.617552
20
-10.177929
30
-197.96646
11
-16.779596
21
18.705101
31
-196.8787
0
LINE
8
0
10
-16.779596
20
18.705101
30
-196.8787
11
-39.213554
21
1.8188286
31
-180.28383
0
LINE
8
0
10
-39.213554
20
1.8188286
30
-180.28383
11
-53.697296
21
6.4409294
31
-169.92674
0
LINE
8
0
10
-53.697296
20
6.4409294
30
-169.92674
11
-40.404633
21
23.092438
31
-178.91739
0
LINE
8
0
10
55.56463
20
-1.9350071
30
-234.74857
11
55.445496
21
-19.635193
31
-229.504
0
LINE
8
0
10
55.445496
20
-19.635193
30
-229.504
11
39.322273
21
-22.021315
31
-216.60818
0
LINE
8
0
10
39.322273
20
-22.021315
30
-216.60818
11
24.005543
21
-13.493029
31
-203.32718
0
LINE
8
0
10
24.005543
20
-13.493029
30
-203.32718
11
11.439747
21
-23.204664
31
-190.89587
0
LINE
8
0
10
11.439747
20
-23.204664
30
-190.89587
11
-3.5373497
21
-19.84829
31
-179.19263
0
LINE
8
0
10
-3.5373497
20
-19.84829
30
-179.19263
11
-15.758839
21
-5.0258465
31
-172.74669
0
LINE
8
0
10
-15.758839
20
-5.0258465
30
-172.74669
11
-32.51156
21
-7.0433426
31
-159.59845
0
LINE
8
0
10
-32.51156
20
-7.0433426
30
-159.59845
11
-46.006565
21
2.1480637
31
-150.59915
0
LINE
8
0
10
-46.006565
20
2.1480637
30
-150.59915
11
-41.518055
21
18.531399
31
-156.8104
0
LINE
8
0
10
69.17351
20
-10.855735
30
-227.15146
11
69.405174
21
-20.663631
31
-214.0382
0
LINE
8
0
10
69.405174
20
-20.663631
30
-214.0382
11
55.714718
21
-24.435104
31
-200.23615
0
LINE
8
0
10
55.714718
20
-24.435104
30
-200.23615
11
39.26872
21
-22.484255
31
-187.68492
0
LINE
8
0
10
39.26872
20
-22.484255
30
-187.68492
11
25.416182
21
-25.36398
31
-173.09332
0
LINE
8
0
10
25.416182
20
-25.36398
30
-173.09332
11
9.489639
21
-22.082031
31
-160.95193
0
LINE
8
0
10
9.489639
20
-22.082031
30
-160.95193
11
-6.60384
21
-13.344635
31
-153.00185
0
LINE
8
0
10
-6.60384
20
-13.344635
30
-153.00185
11
-21.49319
21
-9.526585
31
-140.53003
0
LINE
8
0
10
-21.49319
20
-9.526585
30
-140.53003
11
-33.790096
21
1.3276043
31
-133.62543
0
LINE
8
0
10
-33.790096
20
1.3276043
30
-133.62543
11
-22.287987
21
16.20364
31
-145.02899
0
LINE
8
0
10
47.574875
20
-7.213707
30
-218.22534
11
72.252205
21
-5.622856
31
-201.35779
0
LINE
8
0
10
72.252205
20
-5.622856
30
-201.35779
11
62.134506
21
-9.031307
31
-187.06615
0
LINE
8
0
10
62.134506
20
-9.031307
30
-187.06615
11
44.09439
21
-4.981657
31
-178.45496
0
LINE
8
0
10
44.09439
20
-4.981657
30
-178.45496
11
35.389664
21
-9.865616
31
-162.23541
0
LINE
8
0
10
35.389664
20
-9.865616
30
-162.23541
11
20.538765
21
-6.697132
31
-150.96005
0
LINE
8
0
10
20.538765
20
-6.697132
30
-150.96005
11
4.2207413
21
2.98452
31
-148.55405
0
LINE
8
0
10
4.2207413
20
2.98452
30
-148.55405
11
-8.249153
21
4.4200974
31
-132.20717
0
LINE
8
0
10
-8.249153
20
4.4200974
30
-132.20717
11
-22.804775
21
12.350819
31
-122.98776
0
LINE
8
0
10
-22.804775
20
12.350819
30
-122.98776
11
-33.501595
21
22.776478
31
-131.76976
0
LINE
8
0
10
55.123005
20
17.40506
30
-202.20094
11
53.206387
21
6.3666754
31
-197.41714
0
LINE
8
0
10
53.206387
20
6.3666754
30
-197.41714
11
57.200516
21
12.267961
31
-183.31708
0
LINE
8
0
10
57.200516
20
12.267961
30
-183.31708
11
31.497963
21
21.792397
31
-184.23962
0
LINE
8
0
10
31.497963
20
21.792397
30
-184.23962
11
37.200844
21
12.050217
31
-163.35587
0
LINE
8
0
10
37.200844
20
12.050217
30
-163.35587
11
24.019962
21
15.1933565
31
-152.48914
0
LINE
8
0
10
24.019962
20
15.1933565
30
-152.48914
11
7.872921
21
26.179733
31
-166.27832
0
LINE
8
0
10
7.872921
20
26.179733
30
-166.27832
11
1.5324745
21
23.221691
31
-137.98781
0
LINE
8
0
10
1.5324745
20
23.221691
30
-137.98781
11
-11.822159
21
27.838385
31
-126.91553
0
LINE
8
0
10
-11.822159
20
27.838385
30
-126.91553
11
-15.752117
21
30.567068
31
-148.31702
0
LINE
8
0
10
42.92082
20
29.725119
30
-206.03072
11
19.638311
21
18.119467
31
-198.97816
0
LINE
8
0
10
19.638311
20
18.119467
30
-198.97816
11
68.82625
21
26.603579
31
-179.83987
0
LINE
8
0
10
68.82625
20
26.603579
30
-179.83987
11
51.445023
21
31.013607
31
-174.74002
0
LINE
8
0
10
51.445023
20
31.013607
30
-174.74002
11
45.831944
21
26.588314
31
-161.52667
0
LINE
8
0
10
45.831944
20
26.588314
30
-161.52667
11
27.777779
21
30.664742
31
-143.28706
0
LINE
8
0
10
27.777779
20
30.664742
30
-143.28706
11
5.198227
21
36.11325
31
-145.3735
0
LINE
8
0
10
5.198227
20
36.11325
30
-145.3735
11
9.9701805
21
40.031616
31
-133.21317
0
LINE
8
0
10
9.9701805
20
40.031616
30
-133.21317
11
-4.0815506
21
42.881565
31
-121.18892
0
LINE
8
0
10
-4.0815506
20
42.881565
30
-121.18892
11
-15.99231
21
46.110798
31
-132.22484
0
LINE
8
0
10
5.8179703
20
2.455799
30
-263.4017
11
18.602257
21
-1.7645001
31
-282.63492
0
LINE
8
0
10
18.602257
20
-1.7645001
30
-282.63492
11
35.11978
21
-6.4176884
31
-279.86566
0
LINE
8
0
10
35.11978
20
-6.4176884
30
-279.86566
11
37.590908
21
0.7556715
31
-259.80838
0
LINE
8
0
10
37.590908
20
0.7556715
30
-259.80838
11
30.470488
21
9.930429
31
-232.80133
0
LINE
8
0
10
30.470488
20
9.930429
30
-232.80133
11
55.56463
21
-1.9350071
31
-234.74857
0
LINE
8
0
10
55.56463
20
-1.9350071
30
-234.74857
11
69.17351
21
-10.855735
31
-227.15146
0
LINE
8
0
10
69.17351
20
-10.855735
30
-227.15146
11
47.574875
21
-7.213707
31
-218.22534
0
LINE
8
0
10
47.574875
20
-7.213707
30
-218.22534
11
55.123005
21
17.40506
31
-202.20094
0
LINE
8
0
10
55.123005
20
17.40506
30
-202.20094
11
42.92082
21
29.725119
31
-206.03072
0
LINE
8
0
10
-0.38993502
20
-2.1401215
30
-282.6007
11
10.90427
21
-15.557743
31
-287.3525
0
LINE
8
0
10
10.90427
20
-15.557743
30
-287.3525
11
27.071918
21
-21.88531
31
-278.0284
0
LINE
8
0
10
27.071918
20
-21.88531
30
-278.0284
11
36.72868
21
-16.849981
31
-260.307
0
LINE
8
0
10
36.72868
20
-16.849981
30
-260.307
11
42.40373
21
-9.380008
31
-241.99411
0
LINE
8
0
10
42.40373
20
-9.380008
30
-241.99411
11
55.445496
21
-19.635193
31
-229.504
0
LINE
8
0
10
55.445496
20
-19.635193
30
-229.504
11
69.405174
21
-20.663631
31
-214.0382
0
LINE
8
0
10
69.405174
20
-20.663631
30
-214.0382
11
72.252205
21
-5.622856
31
-201.35779
0
LINE
8
0
10
72.252205
20
-5.622856
30
-201.35779
11
53.206387
21
6.3666754
31
-197.41714
0
LINE
8
0
10
53.206387
20
6.3666754
30
-197.41714
11
19.638311
21
18.119467
31
-198.97816
0
LINE
8
0
10
-12.573837
20
-2.2646613
30
-270.77173
11
-2.496007
21
-19.879135
31
-275.15726
0
LINE
8
0
10
-2.496007
20
-19.879135
30
-275.15726
11
13.625407
21
-27.99149
31
-265.68277
0
LINE
8
0
10
13.625407
20
-27.99149
30
-265.68277
11
23.20765
21
-19.936916
31
-247.16649
0
LINE
8
0
10
23.20765
20
-19.936916
30
-247.16649
11
35.384674
21
-6.1408434
31
-227.74417
0
LINE
8
0
10
35.384674
20
-6.1408434
30
-227.74417
11
39.322273
21
-22.021315
31
-216.60818
0
LINE
8
0
10
39.322273
20
-22.021315
30
-216.60818
11
55.714718
21
-24.435104
31
-200.23615
0
LINE
8
0
10
55.714718
20
-24.435104
30
-200.23615
11
62.134506
21
-9.031307
31
-187.06615
0
LINE
8
0
10
62.134506
20
-9.031307
30
-187.06615
11
57.200516
21
12.267961
31
-183.31708
0
LINE
8
0
10
57.200516
20
12.267961
30
-183.31708
11
68.82625
21
26.603579
31
-179.83987
0
LINE
8
0
10
-17.807072
20
6.8431354
30
-245.4404
11
-12.461014
21
-16.346138
31
-258.08728
0
LINE
8
0
10
-12.461014
20
-16.346138
30
-258.08728
11
1.7614846
21
-27.034927
31
-250.81448
0
LINE
8
0
10
1.7614846
20
-27.034927
30
-250.81448
11
4.714216
21
-14.763519
31
-233.7256
0
LINE
8
0
10
4.714216
20
-14.763519
30
-233.7256
11
6.8454456
21
14.317766
31
-214.84001
0
LINE
8
0
10
6.8454456
20
14.317766
30
-214.84001
11
24.005543
21
-13.493029
31
-203.32718
0
LINE
8
0
10
24.005543
20
-13.493029
30
-203.32718
11
39.26872
21
-22.484255
31
-187.68492
0
LINE
8
0
10
39.26872
20
-22.484255
30
-187.68492
11
44.09439
21
-4.981657
31
-178.45496
0
LINE
8
0
10
44.09439
20
-4.981657
30
-178.45496
11
31.497963
21
21.792397
31
-184.23962
0
LINE
8
0
10
31.497963
20
21.792397
30
-184.23962
11
51.445023
21
31.013607
31
-174.74002
0
LINE
8
0
10
-31.443607
20
-6.308713
30
-253.28549
11
-24.419184
21
-23.367243
31
-248.26334
0
LINE
8
0
10
-24.419184
20
-23.367243
30
-248.26334
11
1.9789095
21
-25.577415
31
-232.64001
0
LINE
8
0
10
1.9789095
20
-25.577415
30
-232.64001
11
-14.24329
21
-27.972301
31
-226.28174
0
LINE
8
0
10
-14.24329
20
-27.972301
30
-226.28174
11
-1.4644699
21
-13.386654
31
-209.07776
0
LINE
8
0
10
-1.4644699
20
-13.386654
30
-209.07776
11
11.439747
21
-23.204664
31
-190.89587
0
LINE
8
0
10
11.439747
20
-23.204664
30
-190.89587
11
25.416182
21
-25.36398
31
-173.09332
0
LINE
8
0
10
25.416182
20
-25.36398
30
-173.09332
11
35.389664
21
-9.865616
31
-162.23541
0
LINE
8
0
10
35.389664
20
-9.865616
30
-162.23541
11
37.200844
21
12.050217
31
-163.35587
0
LINE
8
0
10
37.200844
20
12.050217
30
-163.35587
11
45.831944
21
26.588314
31
-161.52667
0
LINE
8
0
10
-45.041725
20
-3.6976547
30
-244.99844
11
-44.823906
21
-22.709967
31
-241.9013
0
LINE
8
0
10
-44.823906
20
-22.709967
30
-241.9013
11
-42.07577
21
-33.434986
31
-226.99088
0
LINE
8
0
10
-42.07577
20
-33.434986
30
-226.99088
11
-28.351692
21
-24.25508
31
-212.21594
0
LINE
8
0
10
-28.351692
20
-24.25508
30
-212.21594
11
-14.617552
21
-10.177929
31
-197.96646
0
LINE
8
0
10
-14.617552
20
-10.177929
30
-197.96646
11
-3.5373497
21
-19.84829
31
-179.19263
0
LINE
8
0
10
-3.5373497
20
-19.84829
30
-179.19263
11
9.489639
21
-22.082031
31
-160.95193
0
LINE
8
0
10
9.489639
20
-22.082031
30
-160.95193
11
20.538765
21
-6.697132
31
-150.96005
0
LINE
8
0
10
20.538765
20
-6.697132
30
-150.96005
11
24.019962
21
15.1933565
31
-152.48914
0
LINE
8
0
10
24.019962
20
15.1933565
30
-152.48914
11
27.777779
21
30.664742
31
-143.28706
0
LINE
8
0
10
-41.432114
20
11.230472
30
-227.47908
11
-54.95948
21
-11.151754
31
-229.88669
0
LINE
8
0
10
-54.95948
20
-11.151754
30
-229.88669
11
-54.344902
21
-22.215797
31
-214.8934
0
LINE
8
0
10
-54.344902
20
-22.215797
30
-214.8934
11
-38.89672
21
-8.452987
31
-202.97128
0
LINE
8
0
10
-38.89672
20
-8.452987
30
-202.97128
11
-16.779596
21
18.705101
31
-196.8787
0
LINE
8
0
10
-16.779596
20
18.705101
30
-196.8787
11
-15.758839
21
-5.0258465
31
-172.74669
0
LINE
8
0
10
-15.758839
20
-5.0258465
30
-172.74669
11
-6.60384
21
-13.344635
31
-153.00185
0
LINE
8
0
10
-6.60384
20
-13.344635
30
-153.00185
11
4.2207413
21
2.98452
31
-148.55405
0
LINE
8
0
10
4.2207413
20
2.98452
30
-148.55405
11
7.872921
21
26.179733
31
-166.27832
0
LINE
8
0
10
7.872921
20
26.179733
30
-166.27832
11
5.198227
21
36.11325
31
-145.3735
0
LINE
8
0
10
-64.40638
20
8.359233
30
-231.71083
11
-70.92996
21
-7.4807024
31
-222.77652
0
LINE
8
0
10
-70.92996
20
-7.4807024
30
-222.77652
11
-71.316345
21
-15.840523
31
-205.14197
0
LINE
8
0
10
-71.316345
20
-15.840523
30
-205.14197
11
-56.854763
21
-9.201527
31
-190.80243
0
LINE
8
0
10
-56.854763
20
-9.201527
30
-190.80243
11
-39.213554
21
1.8188286
31
-180.28383
0
LINE
8
0
10
-39.213554
20
1.8188286
30
-180.28383
11
-32.51156
21
-7.0433426
31
-159.59845
0
LINE
8
0
10
-32.51156
20
-7.0433426
30
-159.59845
11
-21.49319
21
-9.526585
31
-140.53003
0
LINE
8
0
10
-21.49319
20
-9.526585
30
-140.53003
11
-8.249153
21
4.4200974
31
-132.20717
0
LINE
8
0
10
-8.249153
20
4.4200974
30
-132.20717
11
1.5324745
21
23.221691
31
-137.98781
0
LINE
8
0
10
1.5324745
20
23.221691
30
-137.98781
11
9.9701805
21
40.031616
31
-133.21317
0
LINE
8
0
10
-74.79354
20
15.600308
30
-222.40062
11
-63.660835
21
4.5755405
31
-209.45746
0
LINE
8
0
10
-63.660835
20
4.5755405
30
-209.45746
11
-86.47979
21
-5.1639194
31
-196.53105
0
LINE
8
0
10
-86.47979
20
-5.1639194
30
-196.53105
11
-71.27133
21
-0.93893623
31
-181.00934
0
LINE
8
0
10
-71.27133
20
-0.93893623
30
-181.00934
11
-53.697296
21
6.4409294
31
-169.92674
0
LINE
8
0
10
-53.697296
20
6.4409294
30
-169.92674
11
-46.006565
21
2.1480637
31
-150.59915
0
LINE
8
0
10
-46.006565
20
2.1480637
30
-150.59915
11
-33.790096
21
1.3276043
31
-133.62543
0
LINE
8
0
10
-33.790096
20
1.3276043
30
-133.62543
11
-22.804775
21
12.350819
31
-122.98776
0
LINE
8
0
10
-22.804775
20
12.350819
30
-122.98776
11
-11.822159
21
27.838385
31
-126.91553
0
LINE
8
0
10
-11.822159
20
27.838385
30
-126.91553
11
-4.0815506
21
42.881565
31
-121.18892
0
LINE
8
0
10
-65.05715
20
15.617807
30
-209.51776
11
-88.0581
21
12.791743
31
-205.67398
0
LINE
8
0
10
-88.0581
20
12.791743
30
-205.67398
11
-88.6252
21
10.439947
31
-188.47223
0
LINE
8
0
10
-88.6252
20
10.439947
30
-188.47223
11
-69.25706
21
16.418184
31
-179.93912
0
LINE
8
0
10
-69.25706
20
16.418184
30
-179.93912
11
-40.404633
21
23.092438
31
-178.91739
0
LINE
8
0
10
-40.404633
20
23.092438
30
-178.91739
11
-41.518055
21
18.531399
31
-156.8104
0
LINE
8
0
10
-41.518055
20
18.531399
30
-156.8104
11
-22.287987
21
16.20364
31
-145.02899
0
LINE
8
0
10
-22.287987
20
16.20364
30
-145.02899
11
-33.501595
21
22.776478
31
-131.76976
0
LINE
8
0
10
-33.501595
20
22.776478
30
-131.76976
11
-15.752117
21
30.567068
31
-148.31702
0
LINE
8
0
10
-15.752117
20
30.567068
30
-148.31702
11
-15.99231
21
46.110798
31
-132.22484
0
LINE
8
0
10
55.123005
20
17.40506
30
-202.20094
11
45.831944
21
26.588314
31
-161.52667
0
LINE
8
0
10
1.9789095
20
-25.577415
30
-232.64001
11
47.574875
21
-7.213707
31
-218.22534
0
LINE
8
0
10
5.198227
20
36.11325
30
-145.3735
11
-22.287987
21
16.20364
31
-145.02899
0
LINE
8
0
10
19.638311
20
18.119467
30
-198.97816
11
35.384674
21
-6.1408434
31
-227.74417
0
LINE
8
0
10
19.638311
20
18.119467
30
-198.97816
11
-22.287987
21
16.20364
31
-145.02899
0
LINE
8
0
10
-63.660835
20
4.5755405
30
-209.45746
11
19.638311
21
18.119467
31
-198.97816
0
ENDSEC
0
EOF
